<svg id="Layer_1" data-name="Layer 1" xmlns="http://www.w3.org/2000/svg" viewBox="0 0 200 200"><path d="M72.9,114.42a52.07,52.07,0,0,0,25.85,6.35c1.87,0,3.34,0,4.53,0v0l48.16.07a20.33,20.33,0,0,1,20.31,20.31v33a4.91,4.91,0,0,0,4.92,4.91h0a4.91,4.91,0,0,0,4.91-4.91v-33A30.18,30.18,0,0,0,151.44,111l-43.32-.17c-2.33-.11-5.31-.21-9.37-.28-7.67-.14-14.52-1.69-20.53-5.07A36.36,36.36,0,0,1,64.14,91.38a41.18,41.18,0,0,1-5.07-20.54,41.14,41.14,0,0,1,5.07-20.53A36.3,36.3,0,0,1,78.22,36.23a41.14,41.14,0,0,1,20.53-5.07,41.16,41.16,0,0,1,20.54,5.07,36.3,36.3,0,0,1,14.08,14.08,41.14,41.14,0,0,1,5.07,20.53,45,45,0,0,1-1.18,10.79,21,21,0,0,1-3.2,7.48q-2,2.72-4.38,2.71c-2.24,0-3.35-1.74-3.35-5.22V70.84a28.93,28.93,0,0,0-3.5-14.27,24.68,24.68,0,0,0-9.79-9.8,29,29,0,0,0-14.29-3.5,28.34,28.34,0,0,0-14.22,3.54,25.23,25.23,0,0,0-9.75,9.8,28.59,28.59,0,0,0-3.5,14.23,29.55,29.55,0,0,0,3.4,14.28,24.58,24.58,0,0,0,9.4,9.8,26.74,26.74,0,0,0,13.69,3.5,19.6,19.6,0,0,0,10.49-3.25,23.11,23.11,0,0,0,8-8.37v4.43a10,10,0,0,0,3.45,8,13.28,13.28,0,0,0,9,3,15.21,15.21,0,0,0,10.34-4A26.32,26.32,0,0,0,146.12,87a47.73,47.73,0,0,0,2.56-16.2A52.07,52.07,0,0,0,142.33,45,45.1,45.1,0,0,0,124.6,27.27a52.12,52.12,0,0,0-25.85-6.35A52.18,52.18,0,0,0,72.9,27.27,45.07,45.07,0,0,0,55.18,45a52.18,52.18,0,0,0-6.35,25.85,52.15,52.15,0,0,0,6.35,25.85A45.1,45.1,0,0,0,72.9,114.42ZM113.82,79.8a15.14,15.14,0,0,1-6.1,6.11,19.58,19.58,0,0,1-17.92,0,15.1,15.1,0,0,1-6.11-6.11,19.58,19.58,0,0,1,0-17.92,15.14,15.14,0,0,1,6.11-6.1,19.58,19.58,0,0,1,17.92,0,15.18,15.18,0,0,1,6.1,6.1,19.58,19.58,0,0,1,0,17.92Z" style="fill:#fff"/><path d="M20.84,179.08a4.91,4.91,0,0,0,4.92-4.91V137.82a20.33,20.33,0,0,1,20.31-20.31l13.33,0A44.81,44.81,0,0,1,50,107.66h-4a30.18,30.18,0,0,0-30.14,30.15v36.35a4.91,4.91,0,0,0,4.91,4.91Z" style="fill:#fff"/></svg>