<svg id="Layer_1" data-name="Layer 1" xmlns="http://www.w3.org/2000/svg" viewBox="0 0 512 512"><rect x="0.83" y="-0.5" width="512" height="512" style="fill:#ffce00"/><g id="Group_380" data-name="Group 380"><g id="Group_373" data-name="Group 373"><path id="Path_86" data-name="Path 86" d="M365.24,103.29a33.82,33.82,0,0,0-29.19-16.74H178.5a33.79,33.79,0,0,0-29.18,16.74l-78.78,135a33.83,33.83,0,0,0,0,34l78.78,135a33.79,33.79,0,0,0,29.18,16.74H336.05a33.82,33.82,0,0,0,29.19-16.74l78.77-135a33.85,33.85,0,0,0,0-34Z" style="fill:#313131"/></g><path id="Path_85" data-name="Path 85" d="M176.24,288.58H141.81a3.33,3.33,0,0,1-2.46-.76,3.38,3.38,0,0,1-.76-2.46V227.27a2.76,2.76,0,0,1,3.22-3.23h28.6q8.79,0,13,3.36t4.21,10.36v4.3a12.69,12.69,0,0,1-1.3,6.14,8,8,0,0,1-4,3.54,11.89,11.89,0,0,1,8.52,3.95q2.78,3.4,2.78,9.95v8.25q0,7.53-4.26,11.11T176.24,288.58Zm-27.7-8.06h24.1a22.76,22.76,0,0,0,6.1-.68,8.45,8.45,0,0,0,3.54-1.83,6.06,6.06,0,0,0,1.67-2.83,13.42,13.42,0,0,0,.44-3.63v-5.74a19.06,19.06,0,0,0-.4-4.12,6.9,6.9,0,0,0-1.66-3.27,8,8,0,0,0-3.58-2.15,19.68,19.68,0,0,0-6-.76q3.85-1,4.8-3.24a12.61,12.61,0,0,0,.94-4.93V241.6a14.2,14.2,0,0,0-.46-3.67,6.65,6.65,0,0,0-1.7-3,8.62,8.62,0,0,0-3.59-2.06,19.62,19.62,0,0,0-6-.76H148.54ZM166.73,233q6.74,0,8.79,2.51a9.31,9.31,0,0,1,2.06,6.1v5.74a14.59,14.59,0,0,1-.31,3.09,5.1,5.1,0,0,1-1.44,2.6,7.78,7.78,0,0,1-3.27,1.79,20.08,20.08,0,0,1-5.82.68H149.43V233Zm-8,6.28V249h7.62a3.34,3.34,0,0,0,2.55-.9,3.74,3.74,0,0,0,.85-2.69v-2.51a3.77,3.77,0,0,0-.85-2.69,3.37,3.37,0,0,0-2.55-.89Zm14,17.12c4.49,0,7.4.9,8.75,2.69a10.91,10.91,0,0,1,2,6.72v5.74a8.21,8.21,0,0,1-2.06,5.87q-2.06,2.2-8.79,2.2H149.43V256.4Zm-14,6.37v10.57h11.65a3.32,3.32,0,0,0,2.55-.89,3.78,3.78,0,0,0,.86-2.69v-3.5a3.58,3.58,0,0,0-.86-2.64,3.45,3.45,0,0,0-2.55-.85Zm99.77,8.87a22.19,22.19,0,0,1-1.21,7.49,12.55,12.55,0,0,1-4.3,5.73,23,23,0,0,1-8.47,3.72,58,58,0,0,1-13.71,1.35,57.52,57.52,0,0,1-13.72-1.35,23,23,0,0,1-8.48-3.72,12.48,12.48,0,0,1-4.3-5.73,22,22,0,0,1-1.22-7.49V227.27a3.45,3.45,0,0,1,.76-2.47,3.4,3.4,0,0,1,2.47-.76h14.07a2.76,2.76,0,0,1,3.23,3.23v40.87a3.87,3.87,0,0,0,1.34,3q1.35,1.22,6,1.22t6.1-1.22a3.87,3.87,0,0,0,1.34-3V227.27a2.76,2.76,0,0,1,3.22-3.23H255.3a3.4,3.4,0,0,1,2.47.76,3.45,3.45,0,0,1,.76,2.47ZM213,232.11v37.37a11.26,11.26,0,0,0,3.72,8.75q3.72,3.36,14.21,3.36t14.25-3.36a11.15,11.15,0,0,0,3.77-8.74V232.11H248v37.38a10.16,10.16,0,0,1-3.58,8.11q-3.59,3.11-13.54,3.1t-13.49-3.1a10.23,10.23,0,0,1-3.54-8.11V232.11Zm103.09,56.47H271.62a2.76,2.76,0,0,1-3.22-3.22v-12a7.92,7.92,0,0,1,.53-3,8.46,8.46,0,0,1,1.71-2.55l21.78-26.45H273.23a2.76,2.76,0,0,1-3.22-3.23V227.27a2.76,2.76,0,0,1,3.22-3.23h41.24a2.76,2.76,0,0,1,3.22,3.23v13.35a8,8,0,0,1-.54,3.1,8.56,8.56,0,0,1-1.7,2.55l-20.8,25.19h21.43a2.76,2.76,0,0,1,3.22,3.23v10.66a2.76,2.76,0,0,1-3.22,3.23Zm-9.42-48.77a14,14,0,0,0,1.07-1.57,3.34,3.34,0,0,0,.45-1.75v-1.43a3.18,3.18,0,0,0-.66-2.24,2.79,2.79,0,0,0-2.1-.72H278.07v.9h27.35a2.32,2.32,0,0,1,1.3.4,2,2,0,0,1,.58,1.66v1.26a3,3,0,0,1-.31,1.43,12.61,12.61,0,0,1-.95,1.35l-26.26,33.71a14,14,0,0,0-1.08,1.56,3.49,3.49,0,0,0-.45,1.75v1.44a3.29,3.29,0,0,0,.67,2.24,2.83,2.83,0,0,0,2.11.72h30.21v-.9H281a2.25,2.25,0,0,1-1.3-.41,1.88,1.88,0,0,1-.57-1.65V276.3a2.72,2.72,0,0,1,.31-1.43,14.13,14.13,0,0,1,.94-1.35Zm68.14,48.77H330.34a2.76,2.76,0,0,1-3.23-3.22v-12a7.74,7.74,0,0,1,.54-3,8.62,8.62,0,0,1,1.7-2.55l21.79-26.45H332a2.75,2.75,0,0,1-3.22-3.23V227.27A2.75,2.75,0,0,1,332,224h41.24a2.76,2.76,0,0,1,3.22,3.23v13.35a8,8,0,0,1-.54,3.1,8.56,8.56,0,0,1-1.7,2.55l-20.79,25.19H374.8a2.76,2.76,0,0,1,3.22,3.23v10.66a2.76,2.76,0,0,1-3.22,3.23Zm-9.41-48.77a14,14,0,0,0,1.07-1.57,3.34,3.34,0,0,0,.45-1.75v-1.43a3.16,3.16,0,0,0-.67-2.24,2.72,2.72,0,0,0-2.1-.72H336.79v.9h27.35a2.14,2.14,0,0,1,1.29.4,1.91,1.91,0,0,1,.59,1.66v1.25a2.87,2.87,0,0,1-.32,1.44,11.49,11.49,0,0,1-.94,1.34L338.5,272.81a12.75,12.75,0,0,0-1.08,1.56,3.39,3.39,0,0,0-.45,1.75v1.44a3.19,3.19,0,0,0,.67,2.24,2.82,2.82,0,0,0,2.11.72H370v-.9H339.75a2.25,2.25,0,0,1-1.3-.41,1.89,1.89,0,0,1-.58-1.65V276.3a2.72,2.72,0,0,1,.31-1.43,14.13,14.13,0,0,1,.94-1.35Z" style="fill:#ffce00"/></g></svg>