<svg id="Layer_1" data-name="Layer 1" xmlns="http://www.w3.org/2000/svg" viewBox="0 0 385.08 63.18"><path d="M366.83,18.05h-1.52v-.78h3.9v.78h-1.53v4h-.85Z" style="fill:#fff"/><path d="M370.1,17.27h.9l1.46,2.27,1.47-2.27h.9v4.81H374V18.63l-1.52,2.27h0l-1.51-2.25v3.43h-.83Z" style="fill:#fff"/><path d="M124.06,38.16l-.21.26a11.79,11.79,0,0,1-2.2,2.15,7.16,7.16,0,0,1-2.86,1.3,6.28,6.28,0,0,1-2.66,0,4.24,4.24,0,0,1-2.72-2,6.58,6.58,0,0,1-.83-2.28,13.34,13.34,0,0,1-.12-3.34,19.18,19.18,0,0,1,.88-4.5,18.25,18.25,0,0,1,3.43-6.28,12.67,12.67,0,0,1,3.41-2.9,8.44,8.44,0,0,1,2.88-1,5.79,5.79,0,0,1,2.52.08,4.93,4.93,0,0,1,2.19,1.29l.23.25c.11-.38.21-.73.3-1.07h3.51l0,.17c-.92,3.2-1.71,6.43-2.46,9.68-.39,1.67-.77,3.35-1.22,5-.1.35-.18.71-.29,1.07a13.13,13.13,0,0,0-.36,1.87,19.29,19.29,0,0,0-.19,3.31,7.37,7.37,0,0,0,.56,2.7,3.59,3.59,0,0,0,.77,1.19,2.11,2.11,0,0,0,1.47.66,4.21,4.21,0,0,0,1.91-.4,7.4,7.4,0,0,0,1.72-1.1c.33-.27.66-.56,1-.81a4.24,4.24,0,0,1,2.21-.85,2.85,2.85,0,0,1,1.62.32,12,12,0,0,0,1.57.64,7.54,7.54,0,0,0,3,.39,4.76,4.76,0,0,0,2.29-.7c.14-.09.27-.19.4-.29a1.85,1.85,0,0,0,.65-2,6.59,6.59,0,0,0-.24-.71c-.08-.28-.16-.57-.22-.86a.78.78,0,0,1,.18-.7,7.76,7.76,0,0,1,.63-.65,3.23,3.23,0,0,0,.64-.83,1.38,1.38,0,0,0,.17-.77.71.71,0,0,0-.37-.58,1.42,1.42,0,0,0-.7-.17h-.62l-.28,0v0l.18,0c.29-.05.59-.09.88-.17a2.73,2.73,0,0,0,1.24-.82.74.74,0,0,0,.12-.85,1.61,1.61,0,0,0-.36-.53,5.29,5.29,0,0,1-.41-.41.87.87,0,0,1,0-1.31,7.24,7.24,0,0,1,.73-.62l1-.73a3,3,0,0,0,.68-.69.91.91,0,0,0,0-1.21,7.49,7.49,0,0,0-.68-.7,14.17,14.17,0,0,1-1.72-1.83,7.18,7.18,0,0,1-1.08-1.88,5.75,5.75,0,0,1-.32-1.74,19.06,19.06,0,0,1,0-2.14,6,6,0,0,0-.34-2.29,7.93,7.93,0,0,0-2.39-3.48,10.55,10.55,0,0,0-3.32-1.93A22.8,22.8,0,0,0,135,11.08a30.82,30.82,0,0,0-14.71,1.5,27.94,27.94,0,0,0-7.75,4.27,16.5,16.5,0,0,0-1.68,1.55,24.07,24.07,0,0,0-3.68,4.84A21.55,21.55,0,0,0,105,28.41c-.14.54-.3,1.09-.4,1.64a21.42,21.42,0,0,0-.32,4.93,18.41,18.41,0,0,0,7.18,13.72,22.75,22.75,0,0,0,4.79,3,23.89,23.89,0,0,0,6.24,1.87,25.1,25.1,0,0,0,4.66.28,25.92,25.92,0,0,0,3.82-.4,28.42,28.42,0,0,0,4.82-1.24c.62-.23,1.22-.5,1.82-.75l.13-.05c.26.74.51,1.47.77,2.2l-.1.07a29.92,29.92,0,0,1-8.2,3.24,29.27,29.27,0,0,1-4.06.62,25.76,25.76,0,0,1-4.12,0A24.93,24.93,0,0,1,109.11,53a22.72,22.72,0,0,1-7.29-8.54,24.91,24.91,0,0,1-1.9-5.06A23.91,23.91,0,0,1,99.25,32a25.8,25.8,0,0,1,1.48-7c.33-.91.65-1.82,1.06-2.7a24.61,24.61,0,0,1,6-8,28.87,28.87,0,0,1,9.49-5.65A30.87,30.87,0,0,1,123.81,7a36.55,36.55,0,0,1,6.1-.36,28.28,28.28,0,0,1,6.71,1.06,23.77,23.77,0,0,1,4.1,1.53,15.28,15.28,0,0,1,4.49,3.28,9.36,9.36,0,0,1,2.48,4.83,8.22,8.22,0,0,1,0,2.71,9.6,9.6,0,0,0-.14,1.93,5.31,5.31,0,0,0,1.35,3.43l1.54,1.67c.26.29.52.57.79.85a.9.9,0,0,1,.21.87,2.54,2.54,0,0,1-.37.84,6.17,6.17,0,0,1-1.31,1.39,10.08,10.08,0,0,1-1,.7.5.5,0,0,0-.12.79,2.64,2.64,0,0,1,.45.64,1.69,1.69,0,0,1,.06,1.41,2.45,2.45,0,0,1-.45.74l-.29.34a.23.23,0,0,0,0,.27l.16.36a1.41,1.41,0,0,1,.05,1.05,2.69,2.69,0,0,1-.73,1.12c-.1.1-.21.2-.3.31a1.65,1.65,0,0,0-.39.82,1.19,1.19,0,0,0,.11.64c.07.18.15.35.23.53a3.94,3.94,0,0,1,.33,1.22,2.47,2.47,0,0,1-1.13,2.42A6.72,6.72,0,0,1,144,45.49a11.23,11.23,0,0,1-3,.1,22.75,22.75,0,0,1-2.46-.35,3.59,3.59,0,0,0-2.72.58A7.23,7.23,0,0,0,134.38,47,9.56,9.56,0,0,1,133,48.22a6.85,6.85,0,0,1-2.58,1.2,4.36,4.36,0,0,1-2.89-.33,4.93,4.93,0,0,1-1.68-1.33,7.45,7.45,0,0,1-1.42-2.84,15.73,15.73,0,0,1-.58-4.68,8.53,8.53,0,0,1,.25-1.94A.76.76,0,0,0,124.06,38.16Zm-7.68-1.61a8.85,8.85,0,0,0,.18,1.86,3.57,3.57,0,0,0,.63,1.47,1.68,1.68,0,0,0,1.7.68,4,4,0,0,0,1.49-.6,7.23,7.23,0,0,0,1.53-1.29,11,11,0,0,0,2.23-3.55,45.45,45.45,0,0,0,2.73-9.72,8.14,8.14,0,0,0,0-2.26,4,4,0,0,0-.45-1.46A2.09,2.09,0,0,0,125,20.63a3,3,0,0,0-1.16,0,4.54,4.54,0,0,0-1.88.89,8.18,8.18,0,0,0-1.58,1.64,15.54,15.54,0,0,0-2,3.52,27.68,27.68,0,0,0-1.62,5.49,24.74,24.74,0,0,0-.45,4.38Z" style="fill:#fff"/><path d="M35.21,14a2,2,0,0,1-1.46,3.5H24.63V44.36a2.21,2.21,0,1,1-4.41,0V17.51H11.06a2,2,0,0,1-1.47-.57,2.17,2.17,0,0,1,0-2.93,2,2,0,0,1,1.47-.57H33.75A2,2,0,0,1,35.21,14Z" style="fill:#fff"/><path d="M56,24.43a8.83,8.83,0,0,1,3.65,3.71A12.15,12.15,0,0,1,60.94,34V44.44a2.17,2.17,0,1,1-4.33,0V34a6.27,6.27,0,0,0-6.74-7,7.28,7.28,0,0,0-3.25.73,5.77,5.77,0,0,0-2.29,1.95,4.84,4.84,0,0,0-.83,2.75v12A2.11,2.11,0,0,1,42.91,46a2.08,2.08,0,0,1-1.57.62A2.11,2.11,0,0,1,39.79,46a2.09,2.09,0,0,1-.61-1.55V15.6A2.09,2.09,0,0,1,39.79,14a2.17,2.17,0,0,1,1.55-.59,2.14,2.14,0,0,1,1.57.59,2.11,2.11,0,0,1,.59,1.57V26a9.43,9.43,0,0,1,3.23-2.09,10.57,10.57,0,0,1,4-.75A10.74,10.74,0,0,1,56,24.43Z" style="fill:#fff"/><path d="M87.36,35.94a2,2,0,0,1-1.4.53H69.84a7.43,7.43,0,0,0,2.7,4.79,8.57,8.57,0,0,0,8.1,1.36,8,8,0,0,0,2.27-1.14,2.14,2.14,0,0,1,1.4-.47,1.84,1.84,0,0,1,1.27.42,1.86,1.86,0,0,1,.76,1.45,1.53,1.53,0,0,1-.68,1.27A11.72,11.72,0,0,1,82.08,46a12.59,12.59,0,0,1-4.09.73,12.86,12.86,0,0,1-6.24-1.51,10.88,10.88,0,0,1-4.3-4.18A11.88,11.88,0,0,1,65.9,35a12.61,12.61,0,0,1,1.46-6.09,10.61,10.61,0,0,1,4.07-4.2,11.68,11.68,0,0,1,5.92-1.5A10.65,10.65,0,0,1,83,24.64a9.45,9.45,0,0,1,3.65,4,13.23,13.23,0,0,1,1.27,5.93A1.76,1.76,0,0,1,87.36,35.94Zm-15-7.4a7.59,7.59,0,0,0-2.44,4.54H84a7.48,7.48,0,0,0-2.12-4.54,6.23,6.23,0,0,0-4.54-1.7A7.32,7.32,0,0,0,72.33,28.54Z" style="fill:#fff"/><path d="M182.71,14a16.8,16.8,0,0,1,4.77,2.8,2,2,0,0,1,.68.79,2.48,2.48,0,0,1,.17.95,1.79,1.79,0,0,1-.61,1.4,2.06,2.06,0,0,1-1.42.55,2.29,2.29,0,0,1-1.49-.55,12.4,12.4,0,0,0-3.39-2.14,11.75,11.75,0,0,0-4.29-.66,11.23,11.23,0,0,0-6.08,1.74,12.48,12.48,0,0,0-4.41,4.73,13.78,13.78,0,0,0,0,13,12.49,12.49,0,0,0,4.41,4.71,11.23,11.23,0,0,0,6.08,1.74,12.81,12.81,0,0,0,7.81-2.8,2.44,2.44,0,0,1,1.4-.51,1.74,1.74,0,0,1,1.33.57,2.11,2.11,0,0,1,.53,1.51,2.16,2.16,0,0,1-.67,1.57,16.14,16.14,0,0,1-10.4,3.69,15.82,15.82,0,0,1-8.29-2.25,16.17,16.17,0,0,1-5.91-6.15,17.37,17.37,0,0,1-2.17-8.61,17.2,17.2,0,0,1,2.17-8.55,16.46,16.46,0,0,1,5.91-6.15,15.75,15.75,0,0,1,8.29-2.27A16.62,16.62,0,0,1,182.71,14Z" style="fill:#fff"/><path d="M208.58,24.84A10.78,10.78,0,0,1,212.74,29a12.23,12.23,0,0,1,1.51,6.1,12.27,12.27,0,0,1-1.49,6.07,10.77,10.77,0,0,1-4.13,4.18,13,13,0,0,1-12.11,0,10.72,10.72,0,0,1-4.16-4.18,12.26,12.26,0,0,1-1.48-6.07,12.33,12.33,0,0,1,1.48-6.1,10.65,10.65,0,0,1,4.16-4.18,12.16,12.16,0,0,1,6.06-1.51A11.94,11.94,0,0,1,208.58,24.84Zm-9.88,3.33A7.22,7.22,0,0,0,196,31a8.61,8.61,0,0,0-1,4.11,8.48,8.48,0,0,0,1,4.1A7.23,7.23,0,0,0,198.7,42a7.89,7.89,0,0,0,7.76,0,7.07,7.07,0,0,0,2.68-2.82,8.7,8.7,0,0,0,1-4.1,8.83,8.83,0,0,0-1-4.11,7.06,7.06,0,0,0-2.68-2.84,7.89,7.89,0,0,0-7.76,0Z" style="fill:#fff"/><path d="M250,25.71a9.48,9.48,0,0,1,2.27,6.74V44.58a2.12,2.12,0,0,1-.6,1.55,2.06,2.06,0,0,1-1.56.62,2.12,2.12,0,0,1-2.17-2.17V32.45a5.43,5.43,0,0,0-1.29-3.92,4.6,4.6,0,0,0-3.46-1.34,4.74,4.74,0,0,0-3.63,1.53,5.54,5.54,0,0,0-1.42,3.9v12a2.11,2.11,0,0,1-.59,1.55,2.08,2.08,0,0,1-1.57.62,2.11,2.11,0,0,1-1.55-.62,2.09,2.09,0,0,1-.61-1.55V32.45a5.39,5.39,0,0,0-1.3-3.92,4.58,4.58,0,0,0-3.45-1.34,4.78,4.78,0,0,0-3.67,1.53,5.49,5.49,0,0,0-1.42,3.9v12a2.12,2.12,0,0,1-.6,1.55,2.06,2.06,0,0,1-1.56.62,2.12,2.12,0,0,1-2.17-2.17V25.71a2.21,2.21,0,0,1,3.69-1.59,2.12,2.12,0,0,1,.64,1.5,7.77,7.77,0,0,1,2.63-1.71,8.78,8.78,0,0,1,3.31-.62,8.48,8.48,0,0,1,3.88.87,7.56,7.56,0,0,1,2.82,2.48,9,9,0,0,1,3.18-2.46,9.93,9.93,0,0,1,4.24-.89A7.8,7.8,0,0,1,250,25.71Z" style="fill:#fff"/><path d="M276,24.88a11.23,11.23,0,0,1,4.22,4.24,12,12,0,0,1,1.53,6,12.78,12.78,0,0,1-1.42,6,10.76,10.76,0,0,1-3.91,4.22,10.4,10.4,0,0,1-5.53,1.52,10.55,10.55,0,0,1-4.58-1A10.34,10.34,0,0,1,262.68,43V54.47a2,2,0,0,1-2.16,2.16A2.13,2.13,0,0,1,259,56a2,2,0,0,1-.61-1.56V35.12a11.86,11.86,0,0,1,1.54-6A11.45,11.45,0,0,1,270,23.33,11.77,11.77,0,0,1,276,24.88ZM273.86,42a7.55,7.55,0,0,0,2.71-2.84,8.23,8.23,0,0,0,1-4.06,8.32,8.32,0,0,0-1-4.07,7.46,7.46,0,0,0-2.71-2.86,7.38,7.38,0,0,0-10.37,2.86,8.53,8.53,0,0,0-1,4.07,8.43,8.43,0,0,0,1,4.06A7.42,7.42,0,0,0,266.18,42a7.61,7.61,0,0,0,7.68,0Z" style="fill:#fff"/><path d="M303.55,24.88a11.54,11.54,0,0,1,4.2,4.24,11.86,11.86,0,0,1,1.54,6v9.46a2.09,2.09,0,0,1-.61,1.55,2.25,2.25,0,0,1-3.1,0,2.09,2.09,0,0,1-.61-1.55V43a10.34,10.34,0,0,1-3.61,2.85,10.55,10.55,0,0,1-4.58,1,10.4,10.4,0,0,1-5.53-1.52,10.66,10.66,0,0,1-3.9-4.22,12.67,12.67,0,0,1-1.43-6,12,12,0,0,1,1.53-6,11.23,11.23,0,0,1,4.22-4.24,11.77,11.77,0,0,1,6-1.55A11.55,11.55,0,0,1,303.55,24.88ZM301.47,42a7.42,7.42,0,0,0,2.69-2.84,8.43,8.43,0,0,0,1-4.06,8.53,8.53,0,0,0-1-4.07,7.48,7.48,0,0,0-10.37-2.86,7.46,7.46,0,0,0-2.71,2.86,8.32,8.32,0,0,0-1,4.07,8.23,8.23,0,0,0,1,4.06A7.55,7.55,0,0,0,293.79,42a7.61,7.61,0,0,0,7.68,0Z" style="fill:#fff"/><path d="M331.48,24.56a9,9,0,0,1,3.64,3.71,12.22,12.22,0,0,1,1.32,5.88V44.58a2.17,2.17,0,1,1-4.33,0V34.15a6.87,6.87,0,0,0-1.84-5.2,6.83,6.83,0,0,0-4.9-1.76,7.28,7.28,0,0,0-3.25.72,6,6,0,0,0-2.29,2,4.81,4.81,0,0,0-.82,2.75v12a2.12,2.12,0,0,1-.6,1.55,2.18,2.18,0,0,1-3.73-1.55V25.67a2.08,2.08,0,0,1,.62-1.57A2.16,2.16,0,0,1,319,25.67v.46a9.56,9.56,0,0,1,3.22-2.1,10.76,10.76,0,0,1,4-.74A10.91,10.91,0,0,1,331.48,24.56Z" style="fill:#fff"/><path d="M361.59,25.37a2.89,2.89,0,0,1-.25,1l-13,29.18a1.74,1.74,0,0,1-1.66,1.31,2.6,2.6,0,0,1-1-.25A1.79,1.79,0,0,1,344.41,55a2.26,2.26,0,0,1,.26-1l4.24-9.55L339.36,26.3a1.8,1.8,0,0,1-.21-.89,1.78,1.78,0,0,1,.34-1,2.33,2.33,0,0,1,.89-.72,2.15,2.15,0,0,1,.85-.17A1.9,1.9,0,0,1,343,24.69l7.76,15.44,6.83-15.4a1.78,1.78,0,0,1,1.66-1.23,2.29,2.29,0,0,1,1,.22A1.73,1.73,0,0,1,361.59,25.37Z" style="fill:#fff"/></svg>