<svg xmlns="http://www.w3.org/2000/svg" width="24.751" height="19.1" viewBox="0 0 24.751 19.1"><defs><style>.a{fill:#206ab4;}</style></defs><path class="a" d="M24.531-3.253c.481-.61.266-1.5-1.633-2.1A12.815,12.815,0,0,0,17.3-6.02a15.232,15.232,0,0,0-3.253.722v2.423L18.369-4.4a4.346,4.346,0,0,1,2.415-.125c.6.2.486.571-.249.834L14.051-1.379V.954l8.813-3.163A4.639,4.639,0,0,0,24.531-3.253ZM14.889-7.227c2.514,1.212,4.49,0,4.49-3.205,0-3.287-1.156-4.748-4.572-5.921a48.557,48.557,0,0,0-5.552-1.521V-.056l4.03,1.28V-13.724c0-.7.314-1.169.816-1.005.657.185.786.829.786,1.53ZM1.856-1.624a13.074,13.074,0,0,0,6.613.43v-2.1l-1.994.726a4.346,4.346,0,0,1-2.415.125c-.6-.2-.486-.571.249-.834L8.469-4.761V-7.1L2.69-5.049A9.535,9.535,0,0,0,.468-3.979C-.421-3.321-.095-2.174,1.856-1.624Z" transform="translate(0.001 17.875)"/></svg>