<svg xmlns="http://www.w3.org/2000/svg" width="19.25" height="19.25" viewBox="0 0 19.25 19.25"><defs><style>.a{fill:#434343;}</style></defs><path class="a" d="M7.958-3.932A1.559,1.559,0,0,1,5.912-3.1L4.688-3.605a2.084,2.084,0,0,0,1.091,1.04A2.123,2.123,0,0,0,8.555-3.7a2.1,2.1,0,0,0,0-1.62A2.129,2.129,0,0,0,7.412-6.471a2.117,2.117,0,0,0-1.564-.021l1.268.524A1.554,1.554,0,0,1,7.958-3.932Zm9.23-13.943H2.062A2.063,2.063,0,0,0,0-15.812v6.905L5.01-6.841a2.811,2.811,0,0,1,1.749-.486l2.38-3.446v-.047a3.768,3.768,0,0,1,3.764-3.76,3.768,3.768,0,0,1,3.764,3.76,3.77,3.77,0,0,1-3.85,3.76L9.423-4.641A2.827,2.827,0,0,1,6.6-1.684,2.831,2.831,0,0,1,3.828-3.949L0-5.534V-.687A2.063,2.063,0,0,0,2.062,1.375H17.187A2.063,2.063,0,0,0,19.25-.687V-15.812A2.063,2.063,0,0,0,17.187-17.875ZM12.9-8.314a2.511,2.511,0,0,0,2.509-2.505A2.511,2.511,0,0,0,12.9-13.325a2.509,2.509,0,0,0-2.509,2.505A2.509,2.509,0,0,0,12.9-8.314Zm0-.627a1.885,1.885,0,0,1-1.886-1.882,1.885,1.885,0,0,1,1.886-1.882,1.882,1.882,0,0,1,1.886,1.882A1.885,1.885,0,0,1,12.908-8.942Z" transform="translate(0 17.875)"/></svg>