<svg xmlns="http://www.w3.org/2000/svg" width="25.668" height="25.642" viewBox="0 0 25.668 25.642"><defs><style>.a{fill:#fff;}</style></defs><g transform="translate(0 -0.5)"><path class="a" d="M25.659,11.844h0a1.473,1.473,0,0,0-.568-1.013L23.63,9.694l.549-1.812a1.467,1.467,0,0,0-1.07-1.854L21.271,5.6l-.235-1.873A1.467,1.467,0,0,0,19.3,2.468l-1.854.355-.976-1.615a1.483,1.483,0,0,0-1.9-.565.873.873,0,0,0-.137.079L12.832,1.841,11.283.762a1.467,1.467,0,0,0-2.094.446L8.213,2.823,6.36,2.468A1.467,1.467,0,0,0,4.628,3.726L4.393,5.6,2.45,6.052l-.091.03L2.325,6.1a1.468,1.468,0,0,0-.84,1.785l.549,1.812L.51,10.879l-.088.077L.4,10.983a1.485,1.485,0,0,0-.048,1.968l1.193,1.426L.575,16.132l-.039.088-.011.033a1.485,1.485,0,0,0,.764,1.821l1.708.8-.16,1.88a1.467,1.467,0,0,0,1.433,1.591l1.887.038.619,1.783a1.467,1.467,0,0,0,1.956.871l1.739-.733,1.365,1.457.071.064.028.021a1.507,1.507,0,0,0,.9.3,1.462,1.462,0,0,0,1.07-.461L15.193,24.3l1.739.733a1.467,1.467,0,0,0,1.955-.871l.619-1.783,2-.04.095-.01.034-.007a1.485,1.485,0,0,0,1.195-1.572l-.16-1.881,1.709-.8a1.467,1.467,0,0,0,.662-2.036l-.915-1.659,1.193-1.426A1.472,1.472,0,0,0,25.659,11.844ZM22.7,13.732a.89.89,0,0,0-.1,1l1.1,1.995-2.062.968a.891.891,0,0,0-.507.878l.193,2.269-2.277.045a.89.89,0,0,0-.82.6l-.747,2.152-2.1-.885a.89.89,0,0,0-.991.211l-1.557,1.662-1.557-1.662a.889.889,0,0,0-.649-.28.879.879,0,0,0-.343.069l-2.1.885-.747-2.151a.89.89,0,0,0-.82-.6l-2.277-.045.193-2.269a.89.89,0,0,0-.507-.878l-2.062-.968,1.1-1.995a.89.89,0,0,0-.1-1L1.518,12,3.29,10.623A.89.89,0,0,0,3.6,9.664l-.66-2.18,2.218-.518a.89.89,0,0,0,.678-.753l.283-2.26,2.237.429a.89.89,0,0,0,.925-.412l1.178-1.949,1.869,1.3a.89.89,0,0,0,1.013,0l1.869-1.3L16.385,3.97a.89.89,0,0,0,.926.413l2.237-.429.283,2.26a.89.89,0,0,0,.678.753l2.218.518-.661,2.18a.89.89,0,0,0,.307.959L24.146,12Zm0,0" transform="translate(0 0)"/><path class="a" d="M136.458,128.781a6.392,6.392,0,1,0,6.392,6.392A6.4,6.4,0,0,0,136.458,128.781Zm0,11.278a4.887,4.887,0,1,1,4.887-4.887A4.892,4.892,0,0,1,136.458,140.059Zm0,0" transform="translate(-123.546 -121.85)"/><path class="a" d="M198.353,212.514l-2.969,2.969-.806-.806a.753.753,0,0,0-1.064,1.064l1.338,1.338a.752.752,0,0,0,1.064,0l3.5-3.5a.752.752,0,0,0-1.064-1.064Zm0,0" transform="translate(-183.604 -201.176)"/></g></svg>