<svg xmlns="http://www.w3.org/2000/svg" width="21.31" height="21.316" viewBox="0 0 21.31 21.316"><defs><style>.a{fill:#228e53;}</style></defs><path class="a" d="M15.894-5.577a33.809,33.809,0,0,0-4.825-4.705,19.273,19.273,0,0,0-3.5,3.12C5.152-4.593,3.738-2.342,3.738-1.057c0,.64.271.962,1.47,1.745A10.687,10.687,0,0,0,9.939,2.363a11.7,11.7,0,0,0,4.314-.438c1.543-.486,3.639-1.753,3.979-2.4C18.674-1.332,17.8-3.244,15.894-5.577ZM8.1-13.071A12.489,12.489,0,0,0,4.391-15.8c-.653-.219-.7-.206-1.233.348A10.65,10.65,0,0,0,.567-10.188a8.3,8.3,0,0,0-.18,2.6,11,11,0,0,0,1.74,5.195c.408.627.52.743.4.425a5.072,5.072,0,0,1,.408-2.75A32.83,32.83,0,0,1,8.1-13.071Zm13.389,2.729c-.726-3.437-2.9-5.6-3.205-5.6a4.01,4.01,0,0,0-1.547.6,18.606,18.606,0,0,0-2.763,2.269c1.822,2.29,4.391,5.99,5.281,8.693a5.148,5.148,0,0,1,.318,2.247c-.073.365-.073.365.06.2a13.028,13.028,0,0,0,1.091-1.869,12.613,12.613,0,0,0,.8-2.522A13.958,13.958,0,0,0,21.493-10.343ZM6.071-17.4c2.05-.107,4.714,1.482,4.911,1.521a8.555,8.555,0,0,0,.928-.417c2.746-1.336,4.039-1.109,4.615-1.083a10.639,10.639,0,0,0-10.05-.5C5.47-17.407,5.444-17.372,6.071-17.4Z" transform="translate(-0.346 18.908)"/></svg>